<?xml version="1.0" standalone="no"?>
<!DOCTYPE svg PUBLIC "-//W3C//DTD SVG 20010904//EN"
 "http://www.w3.org/TR/2001/REC-SVG-20010904/DTD/svg10.dtd">
<svg version="1.0" xmlns="http://www.w3.org/2000/svg"
 width="421.000000pt" height="421.000000pt" viewBox="0 0 421.000000 421.000000"
 preserveAspectRatio="xMidYMid meet">
<metadata>
Created by potrace 1.14, written by Peter Selinger 2001-2017
</metadata>
<g transform="translate(0.000000,421.000000) scale(0.100000,-0.100000)"
fill="#000000" stroke="none">
<path d="M574 4195 c-121 -26 -245 -111 -309 -215 -49 -78 -67 -145 -71 -260
-2 -89 1 -115 21 -173 46 -134 125 -224 250 -283 189 -90 393 -68 551 60 96
77 96 71 -1 171 l-85 87 -41 -36 c-80 -68 -160 -93 -242 -76 -105 21 -178 117
-179 235 -1 147 91 248 227 248 67 1 111 -18 184 -76 l45 -36 40 47 c23 25 60
67 83 92 24 25 43 50 43 55 0 14 -71 73 -129 108 -96 57 -256 79 -387 52z
m227 -70 c73 -15 189 -70 189 -89 0 -7 -16 -31 -36 -54 l-37 -41 -28 20 c-54
38 -120 61 -189 64 -61 4 -76 0 -129 -26 -114 -57 -175 -159 -174 -294 0 -94
37 -179 104 -239 101 -91 273 -96 384 -11 19 14 36 25 39 25 3 0 22 -16 41
-36 35 -35 36 -36 18 -56 -51 -56 -161 -99 -268 -103 -234 -10 -410 127 -448
350 -15 87 1 196 39 272 57 111 183 207 292 220 26 3 48 6 50 8 9 8 95 3 153
-10z"/>
<path d="M1560 4204 c-306 -58 -489 -352 -401 -644 51 -168 188 -294 363 -335
86 -20 226 -14 301 13 172 62 298 209 332 387 9 48 6 160 -4 189 -6 14 -9 26
-6 26 9 0 -20 67 -52 122 -88 150 -238 237 -423 243 -47 2 -96 1 -110 -1z
m235 -89 c190 -65 296 -217 291 -420 -2 -78 -6 -99 -34 -158 -128 -275 -505
-342 -722 -128 -91 90 -133 212 -118 348 19 176 146 322 319 367 69 17 199 13
264 -9z"/>
<path d="M1535 4005 c-205 -83 -258 -362 -98 -522 63 -64 121 -87 214 -87 62
0 86 5 132 27 231 114 226 466 -9 576 -71 34 -164 36 -239 6z m189 -61 c91
-29 158 -128 157 -235 -1 -212 -227 -320 -388 -185 -101 86 -103 275 -4 370
53 51 159 74 235 50z"/>
<path d="M2295 4192 c-11 -3 -22 -8 -25 -12 -3 -5 -5 -215 -4 -468 0 -340 4
-464 12 -475 10 -12 51 -14 230 -12 119 2 229 6 245 9 15 3 38 8 51 10 51 9
153 67 212 120 100 90 149 207 148 351 -2 163 -72 296 -202 387 -56 39 -146
74 -214 83 -56 8 -419 13 -453 7z m495 -88 c155 -44 259 -151 293 -301 14 -61
15 -76 3 -161 -24 -184 -190 -331 -386 -341 -105 -6 -348 -6 -354 0 -4 4 -9
613 -7 786 1 39 -3 39 221 35 122 -1 192 -7 230 -18z"/>
<path d="M2473 4011 c-7 -5 -11 -543 -4 -597 2 -18 237 -11 297 9 113 38 185
141 190 270 5 148 -70 264 -201 308 -41 13 -265 22 -282 10z m247 -74 c106
-22 175 -128 164 -254 -13 -155 -123 -221 -334 -204 -13 1 -15 32 -15 229 -1
127 4 230 9 233 8 6 140 3 176 -4z"/>
<path d="M3280 4190 c-7 -4 -9 -180 -8 -486 l3 -479 370 0 370 0 3 123 c2 94
0 122 -10 123 -7 0 -115 0 -240 0 l-227 1 -3 26 c-2 15 -1 42 1 60 l3 32 208
0 209 0 3 38 c2 20 2 76 0 125 l-3 87 -210 0 -210 0 3 53 3 52 220 1 c121 1
228 2 238 3 16 1 17 12 15 124 l-3 122 -363 0 c-199 1 -367 -2 -372 -5z m667
-118 c2 -48 0 -52 -20 -52 -12 -1 -121 -2 -242 -3 l-220 -2 0 -118 c0 -70 3
-121 9 -125 6 -3 98 -7 206 -8 107 0 198 -2 202 -3 4 0 6 -22 5 -48 l-2 -48
-197 -1 c-108 -1 -203 -4 -210 -6 -10 -4 -13 -33 -12 -124 1 -66 2 -122 3
-126 0 -4 108 -9 239 -10 l237 -3 1 -47 c0 -26 -4 -49 -10 -51 -10 -3 -535 -1
-577 2 -15 1 -17 39 -17 410 l1 410 21 3 c11 2 147 3 301 2 l280 0 2 -52z"/>
<path d="M227 2944 c-3 -3 -3 -12 0 -20 4 -12 202 -14 1323 -14 725 0 1325 3
1334 6 8 3 12 12 9 20 -4 12 -196 14 -1332 14 -730 0 -1330 -3 -1334 -6z"/>
<path d="M2028 2592 c-19 -4 -26 -51 -8 -53 6 -1 15 -3 20 -4 6 -1 19 -3 30
-4 18 -1 20 -8 20 -90 0 -102 5 -121 31 -121 28 0 35 26 33 123 0 56 3 87 10
88 6 1 22 2 35 2 31 2 49 30 33 50 -9 11 -34 14 -100 14 -48 -1 -95 -3 -104
-5z"/>
<path d="M2593 2592 c-28 -4 -25 7 -28 -132 -2 -68 1 -120 7 -127 16 -20 182
-18 198 2 23 28 -5 45 -75 45 -54 0 -63 3 -68 20 -7 27 8 35 66 36 82 2 86 47
4 51 -23 1 -48 2 -54 2 -7 1 -13 10 -13 21 0 18 7 20 64 20 67 0 92 13 80 44
-3 9 -9 17 -13 17 -17 3 -149 4 -168 1z"/>
<path d="M1496 2582 c-10 -17 -8 -244 2 -254 5 -5 18 -8 28 -6 23 4 31 66 24
183 -5 72 -7 80 -27 83 -11 2 -24 -1 -27 -6z"/>
<path d="M1623 2578 c-5 -7 -9 -64 -9 -127 1 -95 4 -116 18 -124 29 -19 46 7
46 74 0 33 1 62 3 64 2 2 33 -30 68 -71 47 -55 70 -74 85 -72 20 3 21 10 24
131 2 111 0 128 -14 134 -35 13 -48 -9 -46 -83 l1 -69 -64 70 c-35 39 -64 73
-65 78 0 12 -37 8 -47 -5z"/>
<path d="M2284 2579 c-10 -18 -12 -220 -1 -242 5 -11 17 -17 30 -15 18 2 23
11 27 53 l5 50 40 -1 c63 -2 63 -2 61 -36 -3 -43 10 -68 34 -68 27 0 31 25 28
155 -3 98 -5 110 -22 113 -26 5 -38 -11 -40 -55 l-1 -38 -52 -3 -52 -3 -3 48
c-3 40 -6 48 -25 51 -11 2 -25 -2 -29 -9z"/>
<path d="M1326 2011 c-3 -5 0 -13 7 -19 15 -12 2636 -15 2656 -2 47 29 -17 30
-1329 30 -762 0 -1331 -4 -1334 -9z"/>
<path d="M1572 1691 c-8 -5 -100 -215 -280 -641 -22 -52 -63 -148 -91 -214
-28 -65 -51 -122 -51 -127 0 -5 50 -9 110 -9 l111 0 20 48 c11 26 63 153 115
282 52 129 99 244 104 255 6 11 21 47 34 80 24 58 25 59 34 34 6 -15 70 -172
142 -350 73 -178 134 -330 137 -336 6 -16 233 -19 233 -3 0 5 -39 101 -86 212
-228 536 -297 696 -315 735 l-19 42 -94 -1 c-51 0 -98 -3 -104 -7z"/>
<path d="M2130 1690 l-35 -5 -1 -93 c0 -67 3 -95 12 -99 7 -2 120 -5 251 -7
260 -2 281 -6 318 -62 24 -37 23 -118 -2 -153 -35 -47 -67 -56 -222 -61 l-143
-5 0 -62 c1 -35 1 -79 1 -98 l1 -36 78 3 c42 1 83 -1 90 -6 7 -4 58 -75 113
-157 l99 -149 131 0 c101 0 129 3 123 13 -5 6 -57 83 -116 170 -60 87 -106
162 -103 168 4 5 23 18 43 28 93 48 153 152 154 268 2 153 -69 263 -201 314
-42 16 -85 23 -176 26 -205 7 -378 8 -415 3z"/>
<path d="M228 1684 c-13 -12 -9 -182 3 -190 6 -3 103 -7 216 -6 221 0 266 -8
335 -53 172 -114 156 -406 -27 -500 l-59 -30 -234 -2 c-128 0 -235 -3 -237 -5
-10 -10 -8 -179 2 -189 7 -7 92 -9 269 -7 233 4 264 7 311 25 197 78 312 230
328 428 18 238 -117 433 -355 513 -33 11 -109 16 -295 19 -137 3 -253 1 -257
-3z"/>
<path d="M3085 1678 c-2 -7 -3 -229 -2 -493 l2 -480 115 0 115 0 0 149 0 148
50 54 c27 30 53 53 56 52 4 -2 74 -94 154 -205 l147 -203 135 0 134 0 -30 43
c-16 23 -109 148 -205 277 -97 129 -176 240 -176 245 0 6 82 95 183 199 100
104 188 197 195 207 13 18 8 19 -120 19 l-132 0 -46 -49 c-102 -110 -159 -172
-244 -264 -49 -53 -92 -97 -95 -97 -4 0 -6 87 -6 193 0 105 -1 198 -3 205 -3
8 -35 12 -113 12 -79 0 -111 -4 -114 -12z"/>
<path d="M1556 447 c-14 -10 -27 -11 -56 -3 -42 11 -64 1 -73 -33 -5 -19 3
-20 35 -6 10 4 31 2 48 -3 24 -9 33 -7 51 7 12 9 20 25 18 34 -4 16 -6 16 -23
4z"/>
<path d="M229 370 c-1 -3 -2 -66 -3 -141 l-1 -137 79 2 c74 1 79 2 82 24 4 20
0 22 -50 22 l-54 0 2 37 1 37 48 0 c42 1 47 3 47 23 0 19 -6 22 -47 25 -42 3
-47 5 -50 31 -3 24 0 27 27 28 74 3 75 4 76 27 1 14 -5 22 -15 23 -89 3 -141
3 -142 -1z"/>
<path d="M519 368 c-1 -5 -2 -67 -3 -138 -1 -148 -5 -142 86 -135 75 5 114 28
134 81 28 73 4 148 -55 178 -30 16 -160 27 -162 14z m148 -70 c28 -32 22 -106
-11 -135 -36 -31 -76 -31 -77 0 -4 55 -5 143 -2 152 6 17 70 5 90 -17z"/>
<path d="M878 321 c-2 -31 -1 -94 2 -141 5 -83 6 -85 30 -85 l25 0 3 136 3
137 -30 4 c-29 4 -29 4 -33 -51z"/>
<path d="M1165 372 c-38 -9 -74 -43 -85 -80 -23 -83 -3 -154 50 -186 17 -9 28
-22 25 -27 -4 -5 1 -12 9 -15 23 -9 20 -34 -4 -34 -11 0 -20 -7 -20 -15 0 -18
41 -20 71 -5 23 13 24 37 2 62 -15 17 -15 18 5 18 36 0 52 11 52 37 0 22 -3
23 -35 17 -53 -10 -81 1 -94 37 -15 43 -14 75 4 108 17 33 44 43 87 30 36 -10
33 -11 42 17 5 16 1 24 -11 29 -25 9 -74 13 -98 7z"/>
<path d="M1472 371 c-12 -9 -102 -270 -94 -275 4 -2 18 -3 32 -2 18 1 27 9 34
34 8 30 11 32 58 32 47 0 50 -2 64 -35 12 -30 19 -35 43 -33 l29 2 -45 131
c-25 71 -50 134 -54 140 -11 11 -54 15 -67 6z m62 -138 c7 -21 4 -23 -29 -23
-28 0 -36 3 -32 14 3 8 11 34 18 58 l12 43 12 -35 c7 -19 15 -45 19 -57z"/>
<path d="M1819 373 c-66 -10 -111 -116 -83 -197 21 -60 58 -86 124 -86 87 0
130 49 130 148 0 99 -65 150 -171 135z m94 -74 c20 -24 23 -86 5 -124 -21 -46
-95 -46 -116 0 -15 32 -15 90 -1 116 21 41 81 45 112 8z"/>
<path d="M2329 365 c-1 -5 -2 -69 -3 -141 l-1 -131 55 -1 c112 -1 150 21 150
89 0 32 -4 42 -20 46 -24 6 -25 12 -5 27 21 16 26 61 9 85 -8 11 -29 23 -47
26 -55 11 -137 10 -138 0z m136 -63 c8 -21 -23 -44 -55 -40 -19 2 -25 9 -25
28 0 14 6 28 14 31 23 9 59 -2 66 -19z m-5 -97 c14 -9 12 -41 -3 -53 -7 -6
-26 -10 -42 -9 -26 2 -30 6 -30 32 0 39 37 54 75 30z"/>
<path d="M2666 360 c-2 -8 -4 -71 -5 -140 l0 -125 29 -1 c30 -2 30 -1 30 52 0
71 19 71 65 0 30 -47 39 -55 65 -54 16 1 30 3 30 5 0 2 -16 28 -37 58 l-36 55
21 23 c41 43 32 106 -17 126 -14 6 -52 12 -84 14 -44 2 -58 -1 -61 -13z m124
-61 c13 -23 -12 -49 -46 -49 -21 0 -24 5 -24 34 0 19 6 36 13 39 20 6 47 -4
57 -24z"/>
<path d="M3062 371 c-6 -4 -102 -261 -102 -275 0 -1 13 -3 29 -4 26 -2 31 3
42 33 12 33 15 35 61 35 44 0 50 -3 59 -27 12 -32 26 -43 56 -43 21 0 20 4
-24 133 -25 72 -49 136 -53 140 -9 11 -56 16 -68 8z m68 -158 c0 -2 -16 -3
-35 -3 -34 0 -35 1 -29 28 4 15 11 35 16 45 5 9 6 17 3 17 -4 0 -3 5 1 12 4 7
15 -11 25 -43 10 -30 19 -55 19 -56z"/>
<path d="M3373 369 c-34 -12 -56 -53 -48 -88 6 -30 30 -52 88 -81 19 -9 27
-20 25 -34 -2 -17 -10 -21 -43 -20 -22 0 -48 4 -57 8 -15 7 -18 3 -18 -22 0
-33 17 -42 86 -42 71 0 115 62 84 120 -6 10 -33 31 -60 46 -32 17 -50 34 -50
46 0 10 5 19 10 19 6 1 16 2 23 3 6 1 24 -1 40 -5 22 -6 29 -3 38 13 16 29 1
38 -71 43 -14 1 -36 -2 -47 -6z"/>
<path d="M3632 366 c-5 -6 -8 -69 -8 -141 l1 -130 30 0 29 0 1 137 c0 134 0
137 -22 141 -13 2 -27 -1 -31 -7z"/>
<path d="M3840 370 c-8 -5 -12 -32 -12 -74 1 -36 1 -97 1 -134 l1 -69 85 0
c83 0 85 1 85 24 0 25 -3 26 -67 23 -30 -1 -43 3 -44 12 0 7 -1 59 -1 115 0
89 -2 102 -18 106 -10 2 -23 1 -30 -3z"/>
</g>
</svg>
